<svg width="32" height="26" viewBox="0 0 32 26" fill="none" xmlns="http://www.w3.org/2000/svg">
<path d="M8 20L4 24V20H3C1.89543 20 1 19.1046 1 18V6C1 4.89543 1.89543 4 3 4H19C20.1046 4 21 4.89543 21 6V18C21 19.1046 20.1046 20 19 20H8Z" stroke="#03020D" stroke-miterlimit="10" stroke-linecap="round"/>
<path d="M11 22H25C26.1046 22 27 21.1046 27 20V8C27 6.89543 26.1046 6 25 6H22" stroke="#03020D" stroke-miterlimit="10" stroke-linecap="round"/>
<circle cx="7" cy="10" r="1" fill="#FF5416"/>
<circle cx="11" cy="10" r="1" fill="#FF5416"/>
<circle cx="15" cy="10" r="1" fill="#FF5416"/>
<path d="M6 14H16" stroke="#FF5416" stroke-miterlimit="10" stroke-linecap="round"/>
</svg>